<svg xmlns="http://www.w3.org/2000/svg" viewBox="0 0 180 180"><defs><style> path { fill: #fff } @media (prefers-color-scheme:light) { rect { fill: #fff } path { fill: #000 } }</style></defs><rect width="180" height="180"/><path d="M89.7,30c7.7,0,14.9,1.2,21.6,3.7,6.7,2.5,12.4,6.2,17.3,11.1,4.9,4.9,8.7,11.1,11.4,18.5,2.7,7.4,4.1,16.1,4.1,26.1s-1.1,16.8-3.4,24.2c-2.2,7.4-5.6,13.8-10.1,19.2-4.5,5.4-10.2,9.6-16.9,12.7-6.8,3.1-14.7,4.6-23.9,4.6H38V30h51.7Zm-1.8,97.8c3.8,0,7.5-.6,11.1-1.8,3.6-1.2,6.8-3.3,9.6-6.1,2.8-2.9,5-6.6,6.7-11.2,1.7-4.6,2.5-10.2,2.5-16.8s-.6-11.5-1.8-16.4c-1.2-4.9-3.1-9-5.8-12.5-2.7-3.5-6.2-6.1-10.7-8-4.4-1.8-9.9-2.8-16.4-2.8h-18.8V127.8h23.5Z"/></svg>